<svg width="32" height="33" viewBox="0 0 32 33" fill="none" xmlns="http://www.w3.org/2000/svg">
<path d="M18.6666 28.5723H13.3333M23.9999 11.239C23.9999 9.11722 23.1571 7.08239 21.6568 5.5821C20.1565 4.08181 18.1217 3.23895 15.9999 3.23895C13.8782 3.23895 11.8434 4.08181 10.3431 5.5821C8.8428 7.08239 7.99994 9.11722 7.99994 11.239C7.99994 15.3592 6.96057 18.1802 5.7995 20.0462C4.82011 21.6201 4.33042 22.4071 4.34838 22.6266C4.36826 22.8697 4.41976 22.9624 4.61564 23.1077C4.79256 23.239 5.59006 23.239 7.18508 23.239H24.8148C26.4098 23.239 27.2073 23.239 27.3842 23.1077C27.5801 22.9624 27.6316 22.8697 27.6515 22.6266C27.6695 22.4071 27.1798 21.6201 26.2004 20.0462C25.0393 18.1802 23.9999 15.3592 23.9999 11.239Z" stroke="black" stroke-width="2" stroke-linecap="round" stroke-linejoin="round"/>
</svg>
