<svg width="24" height="25" viewBox="0 0 24 25" fill="none" xmlns="http://www.w3.org/2000/svg">
<path d="M8 21.2448V7.24475C8 6.31478 8 5.84979 8.10222 5.46829C8.37962 4.43302 9.18827 3.62437 10.2235 3.34697C10.605 3.24475 11.07 3.24475 12 3.24475C12.93 3.24475 13.395 3.24475 13.7765 3.34697C14.8117 3.62437 15.6204 4.43302 15.8978 5.46829C16 5.84979 16 6.31478 16 7.24475V21.2448M5.2 21.2448H18.8C19.9201 21.2448 20.4802 21.2448 20.908 21.0268C21.2843 20.835 21.5903 20.5291 21.782 20.1527C22 19.7249 22 19.1649 22 18.0448V10.4448C22 9.32465 22 8.76459 21.782 8.33677C21.5903 7.96045 21.2843 7.65448 20.908 7.46274C20.4802 7.24475 19.9201 7.24475 18.8 7.24475H5.2C4.07989 7.24475 3.51984 7.24475 3.09202 7.46274C2.71569 7.65448 2.40973 7.96045 2.21799 8.33677C2 8.76459 2 9.32465 2 10.4448V18.0448C2 19.1649 2 19.7249 2.21799 20.1527C2.40973 20.5291 2.71569 20.835 3.09202 21.0268C3.51984 21.2448 4.0799 21.2448 5.2 21.2448Z" stroke="white" stroke-width="2" stroke-linecap="round" stroke-linejoin="round"/>
</svg>
