<svg width="18" height="15" viewBox="0 0 18 15" fill="none" xmlns="http://www.w3.org/2000/svg">
<path d="M1.01677 8.12447C0.90328 7.94477 0.846535 7.85492 0.81477 7.71634C0.79091 7.61224 0.79091 7.44807 0.81477 7.34398C0.846535 7.20539 0.90328 7.11554 1.01677 6.93584C1.95461 5.45086 4.74617 1.69682 9.00034 1.69682C13.2545 1.69682 16.0461 5.45086 16.9839 6.93584C17.0974 7.11554 17.1541 7.20539 17.1859 7.34398C17.2098 7.44807 17.2098 7.61224 17.1859 7.71634C17.1541 7.85492 17.0974 7.94477 16.9839 8.12447C16.0461 9.60946 13.2545 13.3635 9.00034 13.3635C4.74617 13.3635 1.95461 9.60946 1.01677 8.12447Z" stroke="#4F4F4F" stroke-width="1.6" stroke-linecap="round" stroke-linejoin="round"/>
<path d="M9.00034 10.0302C10.381 10.0302 11.5003 8.91087 11.5003 7.53016C11.5003 6.14944 10.381 5.03016 9.00034 5.03016C7.61962 5.03016 6.50034 6.14944 6.50034 7.53016C6.50034 8.91087 7.61962 10.0302 9.00034 10.0302Z" stroke="#4F4F4F" stroke-width="1.6" stroke-linecap="round" stroke-linejoin="round"/>
</svg>
