<svg width="20" height="17" viewBox="0 0 20 17" fill="none" xmlns="http://www.w3.org/2000/svg">
<path d="M18.3334 16.0302V14.3635C18.3334 12.8103 17.271 11.5052 15.8334 11.1352M12.9167 1.27245C14.1383 1.76694 15 2.96458 15 4.36348C15 5.76239 14.1383 6.96003 12.9167 7.45452M14.1667 16.0302C14.1667 14.477 14.1667 13.7004 13.913 13.0879C13.5746 12.2711 12.9257 11.6222 12.109 11.2839C11.4964 11.0302 10.7198 11.0302 9.16669 11.0302H6.66669C5.11355 11.0302 4.33698 11.0302 3.72441 11.2839C2.90765 11.6222 2.25874 12.2711 1.92042 13.0879C1.66669 13.7004 1.66669 14.477 1.66669 16.0302M11.25 4.36348C11.25 6.20443 9.75764 7.69682 7.91669 7.69682C6.07574 7.69682 4.58335 6.20443 4.58335 4.36348C4.58335 2.52254 6.07574 1.03015 7.91669 1.03015C9.75764 1.03015 11.25 2.52254 11.25 4.36348Z" stroke="#4F4F4F" stroke-width="1.6" stroke-linecap="round" stroke-linejoin="round"/>
</svg>
