<svg width="20" height="21" viewBox="0 0 20 21" fill="none" xmlns="http://www.w3.org/2000/svg">
<path d="M1 6.04475C1 4.36459 1 3.52451 1.32698 2.88278C1.6146 2.31829 2.07354 1.85935 2.63803 1.57173C3.27976 1.24475 4.11984 1.24475 5.8 1.24475H14.2C15.8802 1.24475 16.7202 1.24475 17.362 1.57173C17.9265 1.85935 18.3854 2.31829 18.673 2.88278C19 3.52451 19 4.36459 19 6.04475V11.4448C19 13.1249 19 13.965 18.673 14.6067C18.3854 15.1712 17.9265 15.6302 17.362 15.9178C16.7202 16.2448 15.8802 16.2448 14.2 16.2448H7.68375C7.0597 16.2448 6.74767 16.2448 6.44921 16.306C6.18443 16.3603 5.9282 16.4502 5.68749 16.5732C5.41617 16.7118 5.17252 16.9067 4.68521 17.2966L2.29976 19.2049C1.88367 19.5378 1.67563 19.7043 1.50054 19.7044C1.34827 19.7046 1.20422 19.6354 1.10923 19.5164C1 19.3795 1 19.1131 1 18.5803V6.04475Z" stroke="#B0B0B0" stroke-width="2" stroke-linecap="round" stroke-linejoin="round"/>
</svg>
