<svg width="23" height="21" viewBox="0 0 23 21" fill="none" xmlns="http://www.w3.org/2000/svg">
<path d="M21.5 19.2448V17.2448C21.5 15.3809 20.2252 13.8148 18.5 13.3708M15 1.53551C16.4659 2.1289 17.5 3.56606 17.5 5.24475C17.5 6.92344 16.4659 8.3606 15 8.95399M16.5 19.2448C16.5 17.381 16.5 16.4491 16.1955 15.714C15.7895 14.7339 15.0108 13.9552 14.0307 13.5492C13.2956 13.2448 12.3638 13.2448 10.5 13.2448H7.5C5.63623 13.2448 4.70435 13.2448 3.96927 13.5492C2.98915 13.9552 2.21046 14.7339 1.80448 15.714C1.5 16.4491 1.5 17.381 1.5 19.2448M13 5.24475C13 7.45389 11.2091 9.24475 9 9.24475C6.79086 9.24475 5 7.45389 5 5.24475C5 3.03561 6.79086 1.24475 9 1.24475C11.2091 1.24475 13 3.03561 13 5.24475Z" stroke="#B0B0B0" stroke-width="2" stroke-linecap="round" stroke-linejoin="round"/>
</svg>
