<svg width="18" height="18" viewBox="0 0 18 18" fill="none" xmlns="http://www.w3.org/2000/svg">
<path d="M1.5 5.03015C1.5 3.63002 1.5 2.92995 1.77248 2.39518C2.01217 1.92477 2.39462 1.54232 2.86502 1.30264C3.3998 1.03015 4.09987 1.03015 5.5 1.03015H12.5C13.9001 1.03015 14.6002 1.03015 15.135 1.30264C15.6054 1.54232 15.9878 1.92477 16.2275 2.39518C16.5 2.92995 16.5 3.63002 16.5 5.03015V9.53015C16.5 10.9303 16.5 11.6303 16.2275 12.1651C15.9878 12.6355 15.6054 13.018 15.135 13.2577C14.6002 13.5302 13.9001 13.5302 12.5 13.5302H7.06979C6.54975 13.5302 6.28972 13.5302 6.04101 13.5812C5.82036 13.6265 5.60683 13.7014 5.40624 13.8039C5.18014 13.9194 4.9771 14.0818 4.57101 14.4067L2.58313 15.997C2.23639 16.2744 2.06302 16.4131 1.91712 16.4132C1.79022 16.4134 1.67019 16.3557 1.59102 16.2565C1.5 16.1425 1.5 15.9204 1.5 15.4764V5.03015Z" stroke="#4F4F4F" stroke-width="1.6" stroke-linecap="round" stroke-linejoin="round"/>
</svg>
