<svg width="15" height="15" viewBox="0 0 15 15" fill="none" xmlns="http://www.w3.org/2000/svg">
<path d="M11.5 6.19683L8.83331 3.53016M1.16663 13.8635L3.42287 13.6128C3.69853 13.5822 3.83636 13.5669 3.96519 13.5252C4.07949 13.4882 4.18826 13.4359 4.28855 13.3697C4.4016 13.2952 4.49966 13.1971 4.69578 13.001L13.5 4.19683C14.2364 3.46045 14.2364 2.26654 13.5 1.53016C12.7636 0.79378 11.5697 0.79378 10.8333 1.53016L2.02911 10.3343C1.83299 10.5305 1.73493 10.6285 1.66038 10.7416C1.59425 10.8419 1.54197 10.9506 1.50497 11.0649C1.46326 11.1938 1.44795 11.3316 1.41732 11.6073L1.16663 13.8635Z" stroke="white" stroke-width="1.6" stroke-linecap="round" stroke-linejoin="round"/>
</svg>
