<svg width="22" height="23" viewBox="0 0 22 23" fill="none" xmlns="http://www.w3.org/2000/svg">
<path d="M12.5295 7.59661C11.9571 8.0047 11.2566 8.24475 10.5 8.24475C8.567 8.24475 7 6.67775 7 4.74475C7 2.81175 8.567 1.24475 10.5 1.24475C11.753 1.24475 12.8522 1.90317 13.4705 2.89289M5 19.3319H7.61029C7.95063 19.3319 8.28888 19.3724 8.61881 19.4534L11.3769 20.1236C11.9753 20.2694 12.5988 20.2836 13.2035 20.1662L16.253 19.5729C17.0585 19.4159 17.7996 19.0302 18.3803 18.4653L20.5379 16.3665C21.154 15.7681 21.154 14.7972 20.5379 14.1978C19.9832 13.6582 19.1047 13.5974 18.4771 14.0551L15.9626 15.8896C15.6025 16.1528 15.1643 16.2946 14.7137 16.2946H12.2855L13.8311 16.2945C14.7022 16.2945 15.4079 15.6081 15.4079 14.7607V14.4539C15.4079 13.7503 14.9156 13.1367 14.2141 12.9666L11.8286 12.3865C11.4404 12.2923 11.0428 12.2448 10.6431 12.2448C9.67833 12.2448 7.93189 13.0436 7.93189 13.0436L5 14.2696M19 5.74475C19 7.67775 17.433 9.24475 15.5 9.24475C13.567 9.24475 12 7.67775 12 5.74475C12 3.81175 13.567 2.24475 15.5 2.24475C17.433 2.24475 19 3.81175 19 5.74475ZM1 13.8448L1 19.6448C1 20.2048 1 20.4848 1.10899 20.6987C1.20487 20.8869 1.35785 21.0399 1.54601 21.1358C1.75992 21.2447 2.03995 21.2448 2.6 21.2448H3.4C3.96005 21.2448 4.24008 21.2448 4.45399 21.1358C4.64215 21.0399 4.79513 20.8869 4.89101 20.6987C5 20.4848 5 20.2048 5 19.6448V13.8448C5 13.2847 5 13.0047 4.89101 12.7908C4.79513 12.6026 4.64215 12.4496 4.45399 12.3537C4.24008 12.2448 3.96005 12.2448 3.4 12.2448L2.6 12.2448C2.03995 12.2448 1.75992 12.2448 1.54601 12.3537C1.35785 12.4496 1.20487 12.6026 1.10899 12.7908C1 13.0047 1 13.2847 1 13.8448Z" stroke="#B0B0B0" stroke-width="2" stroke-linecap="round" stroke-linejoin="round"/>
</svg>
